# xmcd
# Copyright (C) 1995-1998 Ti Kan
#
# Track frame offsets:
#       150
#       19200
#       33877
#       51097
#       67210
#       84535
#       96425
#       112955
#       132920
#       147832
#       176110
#
# Disc length: 2402 seconds
#
# Revision: 0
# Processed by: cddbd v1.4PL0 Copyright (c) Steve Scherf et al.
# Submitted via: CD-Transfer v1.0
#
DISCID=9a09600b
DTITLE=Jenny White - You Can Have It
DYEAR=2003
DGENRE=
TTITLE0=Faded Roses
TTITLE1=Walkin Man
TTITLE2=My Love
TTITLE3=Sleepin'
TTITLE4=Too Late
TTITLE5=Crazy Girl
TTITLE6=You Can Have It
TTITLE7=Mama Tell Me
TTITLE8=Your Smile
TTITLE9=Stormy
TTITLE10=Bonus Track
EXTD=
EXTT0=
EXTT1=
EXTT2=
EXTT3=
EXTT4=
EXTT5=
EXTT6=
EXTT7=
EXTT8=
EXTT9=
EXTT10=
PLAYORDER=
